<svg id="icon-check" xmlns="http://www.w3.org/2000/svg" width="61.15" height="61.15" viewBox="0 0 61.15 61.15">
  <path id="Path_11" data-name="Path 11" d="M0,0H61.15V61.15H0Z" fill="none"/>
  <g id="Group_12" data-name="Group 12" transform="translate(4.777 4.777)">
    <path id="Path_12" data-name="Path 12" d="M24.3,50.1A25.8,25.8,0,0,1,6.056,6.056,25.8,25.8,0,0,1,42.54,42.54,25.629,25.629,0,0,1,24.3,50.1Z" transform="translate(1.5 1.5)" fill="#00c94b"/>
    <path id="Path_13" data-name="Path 13" d="M22.8,43.436A20.638,20.638,0,1,0,2.16,22.8,20.637,20.637,0,0,0,22.8,43.436m0,5.16A25.792,25.792,0,0,1,4.556,4.556,25.8,25.8,0,1,1,32.841,46.566,25.644,25.644,0,0,1,22.8,48.6Z" transform="translate(3 3)" fill="#fff"/>
  </g>
  <path id="Path_14" data-name="Path 14" d="M20.384,0,7.644,12.74,0,5.1" transform="translate(20.384 25.479)" fill="none" stroke="#fff" stroke-linecap="round" stroke-linejoin="round" stroke-miterlimit="10" stroke-width="5"/>
</svg>
