<svg xmlns="http://www.w3.org/2000/svg" width="116" height="123.845" viewBox="0 0 116 123.845">
  <g id="Group_1" data-name="Group 1" transform="translate(-820.517 -391.875)">
    <g id="prediction" transform="translate(836.954 391.875)">
      <path id="Path_1" data-name="Path 1" d="M41.591-479.6a12.423,12.423,0,0,0-8.14,6.337c-1.347,2.732-1.727,5.977-.854,7.153a2.7,2.7,0,0,0,2.542,1.29c1.878,0,2.77-.949,3.055-3.245a6.2,6.2,0,0,1,4.307-5.483,6.134,6.134,0,0,1,7.248,3.226,4.8,4.8,0,0,1,.474,2.467c0,2.5-.664,3.662-3.4,5.768a14.23,14.23,0,0,0-4.573,5.009c-.873,1.784-1.082,3.055-1.006,6.129.057,2.732.171,3.074,1.366,3.947a3.432,3.432,0,0,0,3.263,0c1.2-.892,1.309-1.2,1.4-4.212.114-3.624.3-3.947,3.131-6.015a13.376,13.376,0,0,0,4.668-5.123,11.687,11.687,0,0,0,1.252-6.072,11.555,11.555,0,0,0-3.662-7.969A12.022,12.022,0,0,0,41.591-479.6Z" transform="translate(-32.128 479.875)" fill="#edeadf"/>
      <path id="Path_2" data-name="Path 2" d="M361.591-479.6a12.423,12.423,0,0,0-8.14,6.337c-1.347,2.732-1.727,5.977-.854,7.153a2.7,2.7,0,0,0,2.542,1.29c1.878,0,2.77-.949,3.055-3.245a6.2,6.2,0,0,1,4.307-5.483,6.134,6.134,0,0,1,7.248,3.226,4.8,4.8,0,0,1,.474,2.467c0,2.5-.664,3.662-3.4,5.768a14.23,14.23,0,0,0-4.573,5.009c-.873,1.784-1.081,3.055-1.006,6.129.057,2.732.171,3.074,1.366,3.947a3.432,3.432,0,0,0,3.263,0c1.2-.892,1.309-1.2,1.4-4.212.114-3.624.3-3.947,3.131-6.015a13.376,13.376,0,0,0,4.668-5.123,11.687,11.687,0,0,0,1.252-6.072,11.555,11.555,0,0,0-3.662-7.969A12.021,12.021,0,0,0,361.591-479.6Z" transform="translate(-291.412 479.875)" fill="#edeadf"/>
      <path id="Path_3" data-name="Path 3" d="M188.921-415.67a9.32,9.32,0,0,0-6.565,6.66,9.183,9.183,0,0,0,6.6,10.967c.968.247.93.266-1.954.266-4.288.019-6.053.588-8.178,2.618-2.2,2.087-2.827,4-2.827,8.633v3.169l1.575-1.063a24.136,24.136,0,0,1,27.246.019l1.537,1.044v-3.169c0-4.63-.626-6.546-2.827-8.633-2.125-2.03-3.89-2.6-8.178-2.618-2.922,0-2.941,0-1.916-.285A9.17,9.17,0,0,0,200-409.01,9.162,9.162,0,0,0,188.921-415.67Z" transform="translate(-148.702 428.093)" fill="#edeadf"/>
      <path id="Path_4" data-name="Path 4" d="M68.962-287.5a6.414,6.414,0,0,0-4.079,3.339,6.869,6.869,0,0,0-.038,5.028,5.817,5.817,0,0,0,2.732,2.865,4.2,4.2,0,0,0,2.808.626,4.5,4.5,0,0,0,2.58-.493,5.6,5.6,0,0,0,2.751-2.656,4.312,4.312,0,0,0,.645-2.808,4.312,4.312,0,0,0-.645-2.808,5.725,5.725,0,0,0-4.933-3.169A7.37,7.37,0,0,0,68.962-287.5Z" transform="translate(-58.266 324.079)" fill="#edeadf"/>
      <path id="Path_5" data-name="Path 5" d="M388.962-287.5a6.414,6.414,0,0,0-4.079,3.339,6.869,6.869,0,0,0-.038,5.028,5.817,5.817,0,0,0,2.732,2.865,4.2,4.2,0,0,0,2.808.626,4.5,4.5,0,0,0,2.58-.493,5.6,5.6,0,0,0,2.751-2.656,4.312,4.312,0,0,0,.645-2.808,4.312,4.312,0,0,0-.645-2.808,5.724,5.724,0,0,0-4.933-3.169A7.37,7.37,0,0,0,388.962-287.5Z" transform="translate(-317.549 324.079)" fill="#edeadf"/>
      <path id="Path_6" data-name="Path 6" d="M161.318-255.777a21.54,21.54,0,0,0-17.3,18.329l-.114,1.1h4.99l.55.55a1.152,1.152,0,0,1,0,1.935l-.55.55H143.9l.114,1.082A21.523,21.523,0,0,0,158.263-214.7a27.9,27.9,0,0,0,5.123,1.119c.209,0,.266-.512.266-2.486v-2.486l.55-.55a1.152,1.152,0,0,1,1.935,0l.55.55v2.486c0,1.973.057,2.486.266,2.486a27.63,27.63,0,0,0,4.952-1.063,21.375,21.375,0,0,0,13.4-13.282,27.9,27.9,0,0,0,1.119-5.123c0-.209-.512-.266-2.486-.266h-2.486l-.55-.55a1.83,1.83,0,0,1-.55-.968,1.83,1.83,0,0,1,.55-.968l.55-.55h2.486c1.973,0,2.486-.057,2.486-.266a27.9,27.9,0,0,0-1.119-5.123,22.1,22.1,0,0,0-8.178-10.739,23,23,0,0,0-9.335-3.51l-1.1-.114v4.99l-.55.55a1.83,1.83,0,0,1-.968.55,1.83,1.83,0,0,1-.968-.55l-.55-.55V-253.6C163.652-256.461,163.9-256.252,161.318-255.777Zm14,10.8a1.426,1.426,0,0,1,.474,1.081c0,.55-.493,1.119-4.99,5.6l-4.971,4.99h-10.36l-.455-.474a1.479,1.479,0,0,1-.474-1.044,1.479,1.479,0,0,1,.474-1.044l.455-.474h9.013l4.573-4.554c4.1-4.079,4.63-4.554,5.18-4.554A1.5,1.5,0,0,1,175.321-244.981Z" transform="translate(-122.693 298.559)" fill="#edeadf"/>
    </g>
    <text id="PITCHY" transform="translate(820.517 508.72)" fill="#edeadf" font-size="30" font-family="Comfortaa" font-weight="700"><tspan x="0" y="0">PITCHY</tspan></text>
  </g>
</svg>
