<svg id="gold-medal-svgrepo-com" xmlns="http://www.w3.org/2000/svg" width="174.801" height="207.171" viewBox="0 0 174.801 207.171">
  <path id="Path_7" data-name="Path 7" d="M212.845,0H154.579L70.415,123.008h58.267Z" transform="translate(-38.045)" fill="#bf392c"/>
  <path id="Path_8" data-name="Path 8" d="M23.472,0H81.739L165.9,123.008H107.635Z" transform="translate(-23.472)" fill="#e2574c"/>
  <path id="Path_9" data-name="Path 9" d="M122.853,93.887A71.215,71.215,0,1,1,51.638,165.1,71.01,71.01,0,0,1,122.853,93.887Z" transform="translate(-32.216 -29.146)" fill="#c7c7c6"/>
  <path id="Path_10" data-name="Path 10" d="M131.6,122.053a51.793,51.793,0,1,0,51.793,51.793A51.945,51.945,0,0,0,131.6,122.053Zm0,90.637a38.844,38.844,0,1,1,38.844-38.844A38.959,38.959,0,0,1,131.6,212.69Z" transform="translate(-40.96 -37.89)" fill="#adaaa2"/>
</svg>
